<?xml version="1.0" encoding="UTF-8" standalone="no"?>
<!-- Created with Inkscape (http://www.inkscape.org/) -->

<svg
   xmlns:dc="http://purl.org/dc/elements/1.1/"
   xmlns:cc="http://creativecommons.org/ns#"
   xmlns:rdf="http://www.w3.org/1999/02/22-rdf-syntax-ns#"
   xmlns:svg="http://www.w3.org/2000/svg"
   xmlns="http://www.w3.org/2000/svg"
   xmlns:xlink="http://www.w3.org/1999/xlink"
   xmlns:sodipodi="http://sodipodi.sourceforge.net/DTD/sodipodi-0.dtd"
   xmlns:inkscape="http://www.inkscape.org/namespaces/inkscape"
   sodipodi:docname="KSA_Logo_Vector.svg"
   inkscape:version="0.48.4 r9939"
   version="1.1"
   id="svg2985"
   height="64px"
   width="64px"
   inkscape:export-filename="D:\Joe\Creative\Debbie\KSA_Logo_Vector_Large.png"
   inkscape:export-xdpi="1125.05"
   inkscape:export-ydpi="1125.05">
  <sodipodi:namedview
     id="base"
     pagecolor="#ffffff"
     bordercolor="#666666"
     borderopacity="1.0"
     inkscape:pageopacity="0.0"
     inkscape:pageshadow="2"
     inkscape:zoom="7.7781746"
     inkscape:cx="18.947274"
     inkscape:cy="20.400473"
     inkscape:current-layer="layer7"
     showgrid="true"
     inkscape:document-units="px"
     inkscape:grid-bbox="true"
     inkscape:window-width="1920"
     inkscape:window-height="1018"
     inkscape:window-x="1672"
     inkscape:window-y="-8"
     inkscape:window-maximized="1" />
  <defs
     id="defs2987" />
  <metadata
     id="metadata2990">
    <rdf:RDF>
      <cc:Work
         rdf:about="">
        <dc:format>image/svg+xml</dc:format>
        <dc:type
           rdf:resource="http://purl.org/dc/dcmitype/StillImage" />
        <dc:title></dc:title>
      </cc:Work>
    </rdf:RDF>
  </metadata>
  <g
     sodipodi:insensitive="true"
     style="display:inline"
     inkscape:groupmode="layer"
     inkscape:label="Background"
     id="layer1">
    <path
       transform="matrix(1.0014225,0,0,1.0014225,0.68278789,0.50070862)"
       d="m 62.727274,31.454546 a 31.454546,31.454546 0 1 1 -62.90909201,0 31.454546,31.454546 0 1 1 62.90909201,0 z"
       sodipodi:ry="31.454546"
       sodipodi:rx="31.454546"
       sodipodi:cy="31.454546"
       sodipodi:cx="31.272728"
       id="path2993"
       style="fill:#213b78;fill-opacity:1;fill-rule:evenodd;stroke:#b49733;stroke-width:0.9985795;stroke-linecap:butt;stroke-linejoin:miter;stroke-miterlimit:4;stroke-opacity:1;stroke-dasharray:none"
       sodipodi:type="arc" />
    <path
       transform="matrix(0.62590295,0,0,0.62590295,12.426307,12.312507)"
       inkscape:connector-curvature="0"
       id="path2993-9"
       d="m 62.727274,31.454546 c 0,17.371866 -14.08268,31.454546 -31.454546,31.454546 -17.371866,0 -31.45454601,-14.08268 -31.45454601,-31.454546 C -0.18181801,14.08268 13.900862,0 31.272728,0 48.644594,0 62.727274,14.08268 62.727274,31.454546 z"
       style="fill:#b49733;fill-opacity:1;fill-rule:evenodd;stroke:none" />
  </g>
  <g
     sodipodi:insensitive="true"
     style="display:inline"
     inkscape:label="Keystone"
     id="layer2"
     inkscape:groupmode="layer">
    <g
       id="g3951">
      <path
         style="fill:none;stroke:#213b78;stroke-width:0.5;stroke-linecap:butt;stroke-linejoin:miter;stroke-miterlimit:4;stroke-opacity:1;stroke-dasharray:none"
         d="m 23.53,14.772364 2.227273,3.818181"
         id="path3874"
         inkscape:connector-curvature="0"
         sodipodi:nodetypes="cc" />
      <path
         style="fill:none;stroke:#213b78;stroke-width:0.5;stroke-linecap:butt;stroke-linejoin:miter;stroke-miterlimit:4;stroke-opacity:1;stroke-dasharray:none"
         d="m 16.454545,20.363636 9.009137,29.898062"
         id="path3894"
         inkscape:connector-curvature="0"
         sodipodi:nodetypes="cc" />
      <path
         style="fill:none;stroke:#213b78;stroke-width:0.5;stroke-linecap:butt;stroke-linejoin:miter;stroke-miterlimit:4;stroke-opacity:1;stroke-dasharray:none"
         d="M 47.5,20.454546 38.600601,50.151961"
         id="path3894-2"
         inkscape:connector-curvature="0"
         sodipodi:nodetypes="cc" />
      <path
         style="fill:none;stroke:#213b78;stroke-width:0.5;stroke-linecap:butt;stroke-linejoin:miter;stroke-miterlimit:4;stroke-opacity:1;stroke-dasharray:none"
         d="M 40.477273,14.772728 38.25,18.590909"
         id="path3874-4"
         inkscape:connector-curvature="0"
         sodipodi:nodetypes="cc" />
      <path
         style="fill:none;stroke:#213b78;stroke-width:0.49000001;stroke-linecap:butt;stroke-linejoin:miter;stroke-miterlimit:4;stroke-opacity:1;stroke-dasharray:none"
         d="m 23.245197,14.686621 c 0,0 8.830456,-2.460615 17.509606,0"
         id="path3836"
         inkscape:connector-curvature="0" />
      <path
         style="fill:none;stroke:#213b78;stroke-width:0.4275555;stroke-linecap:butt;stroke-linejoin:miter;stroke-miterlimit:4;stroke-opacity:1;stroke-dasharray:none"
         d="m 25.213778,50.328446 c 0,0 6.844863,-2.413 13.572444,0"
         id="path3836-4"
         inkscape:connector-curvature="0" />
      <path
         style="fill:none;stroke:#213b78;stroke-width:0.50128961;stroke-linecap:butt;stroke-linejoin:miter;stroke-miterlimit:4;stroke-opacity:1;stroke-dasharray:none"
         d="m 16.250645,20.496499 c 0,0 15.88545,-5.200157 31.49871,0"
         id="path3836-8"
         inkscape:connector-curvature="0" />
    </g>
    <path
       inkscape:connector-curvature="0"
       id="path3997"
       d="m 32.379768,17.989413 c -5.307001,0.03218 -10.621367,0.703384 -15.72509,2.167524 -0.364024,0.162782 -0.335926,0.638632 -0.182729,0.963628 2.864569,9.643356 5.798313,19.274776 8.678054,28.909624 0.120935,0.410055 0.640919,0.446283 0.996378,0.299315 2.001826,-0.504754 4.055935,-0.825529 6.130936,-0.781061 1.998626,-0.0485 3.976094,0.285997 5.891888,0.829273 0.486264,0.165414 0.766429,-0.346615 0.820623,-0.753843 2.887329,-9.595897 5.751745,-19.199183 8.634921,-28.795989 0.14396,-0.497737 -0.429228,-0.771972 -0.833662,-0.861786 -4.481111,-1.365721 -9.170417,-1.982604 -13.852865,-1.976685 -0.186162,-8.54e-4 -0.372292,-0.0033 -0.558454,0 z"
       style="fill:#213b78;fill-opacity:1;stroke:#213b78;stroke-width:0.03214122;stroke-miterlimit:4;stroke-opacity:1;stroke-dasharray:none;display:inline" />
    <path
       inkscape:connector-curvature="0"
       id="path3999"
       d="m 31.957915,13.37514 c -2.731248,0.03131 -5.462898,0.333466 -8.123693,0.948166 -0.493823,0.171113 -0.391374,0.774972 -0.150662,1.112889 0.611639,1.083325 1.197635,2.193274 1.930482,3.20006 0.451005,0.306378 1.030171,0.02635 1.535647,0.04649 3.645626,-0.340569 7.328364,-0.352786 10.973313,0.0057 0.604362,-0.04767 0.70633,-0.789069 1.02788,-1.191521 0.465299,-0.863864 1.057884,-1.677631 1.394764,-2.601143 0.05815,-0.488919 -0.489914,-0.652797 -0.879866,-0.717151 -2.521229,-0.590234 -5.120311,-0.825442 -7.707865,-0.80353 z"
       style="fill:#213b78;fill-opacity:1;stroke:#213b78;stroke-width:0.03214122;stroke-miterlimit:4;stroke-opacity:1;stroke-dasharray:none;display:inline" />
  </g>
  <g
     style="display:inline"
     inkscape:label="Outer Text"
     id="layer5"
     inkscape:groupmode="layer"
     sodipodi:insensitive="true">
    <path
       d="M 32,1.90625 C 15.488094,1.90625 1.90625,15.488094 1.90625,32 1.90625,48.511906 15.488094,62.09375 32,62.09375 48.511907,62.09375 62.09375,48.511905 62.09375,32 62.09375,15.488095 48.511907,1.90625 32,1.90625 z"
       id="path4108"
       style="fill:none;stroke:#213b78;stroke-opacity:1"
       inkscape:original="M 32 10.84375 C 20.308856 10.84375 10.84375 20.308856 10.84375 32 C 10.84375 43.691144 20.308856 53.15625 32 53.15625 C 43.691145 53.15625 53.15625 43.691144 53.15625 32 C 53.15625 20.308856 43.691145 10.84375 32 10.84375 z "
       inkscape:radius="8.9317894"
       sodipodi:type="inkscape:offset" />
    <text
       sodipodi:linespacing="125%"
       id="text4110"
       style="font-size:10px;font-style:normal;font-weight:normal;line-height:125%;letter-spacing:0px;word-spacing:0px;fill:#000000;fill-opacity:1;stroke:none;font-family:Sans"
       xml:space="preserve"><textPath
         style="font-size:4px;font-style:normal;font-variant:normal;font-weight:normal;font-stretch:normal;font-family:Arial;-inkscape-font-specification:Arial"
         id="textPath4114"
         xlink:href="#path4108"><tspan
   dx="68.545364"
   id="tspan4112"
   style="font-size:4px;font-style:normal;font-variant:normal;font-weight:normal;font-stretch:normal;fill:#ffffff;fill-opacity:1;font-family:Arial;-inkscape-font-specification:Arial">CONDENO ESSE OPTIMUS</tspan></textPath></text>
    <path
       inkscape:connector-curvature="0"
       id="path2993-9-4"
       d="m 53.169191,31.9995 c 0,11.691145 -9.477546,21.168691 -21.168691,21.168691 -11.691145,0 -21.168691,-9.477546 -21.168691,-21.168691 0,-11.691145 9.477546,-21.168691 21.168691,-21.168691 11.691145,0 21.168691,9.477546 21.168691,21.168691 z"
       style="fill:none;stroke:#213b78;stroke-width:0.53761774;stroke-miterlimit:4;stroke-opacity:1;stroke-dasharray:none;display:inline" />
    <text
       sodipodi:linespacing="125%"
       id="text4003"
       style="font-size:40px;font-style:normal;font-variant:normal;font-weight:bold;font-stretch:normal;line-height:125%;letter-spacing:0px;word-spacing:0px;fill:#000000;fill-opacity:1;stroke:none;font-family:Georgia;-inkscape-font-specification:Georgia Bold"
       xml:space="preserve"><textPath
         id="textPath7764"
         xlink:href="#path2993-9-4"><tspan
   dx="74.272812 -0.18181817 -0.99999988 -1.1818181 -0.72727269 -0.90909082 -1.090909 -1.1818181"
   id="tspan4005"
   style="font-size:12px;font-style:normal;font-variant:normal;font-weight:normal;font-stretch:normal;line-height:125%;fill:#ffffff;fill-opacity:1;font-family:Cambria;-inkscape-font-specification:Cambria">KEYSTONE</tspan></textPath></text>
  </g>
  <g
     sodipodi:insensitive="true"
     inkscape:label="Inner Text"
     id="layer6"
     inkscape:groupmode="layer">
    <path
       inkscape:connector-curvature="0"
       id="path4118"
       d="m 12.363636,29.818182 c 0,0 20.018301,-5.207926 39.454546,0"
       style="fill:none;stroke:none" />
    <text
       sodipodi:linespacing="125%"
       id="text4120"
       style="font-size:10px;font-style:normal;font-variant:normal;font-weight:normal;font-stretch:normal;line-height:125%;letter-spacing:0px;word-spacing:0px;fill:#ffffff;fill-opacity:1;stroke:none;font-family:Cambria;-inkscape-font-specification:Cambria"
       xml:space="preserve"><textPath
         dx="2.2727273"
         style="font-size:10px;font-style:normal;font-variant:normal;font-weight:normal;font-stretch:normal;font-family:Cambria;-inkscape-font-specification:Cambria"
         id="textPath4124"
         xlink:href="#path4118">SOCCER</textPath></text>
    <text
       sodipodi:linespacing="125%"
       id="text4165"
       style="font-size:10px;font-style:normal;font-variant:normal;font-weight:normal;font-stretch:normal;line-height:125%;letter-spacing:0px;word-spacing:0px;fill:#000000;fill-opacity:1;stroke:none;font-family:Georgia;-inkscape-font-specification:Georgia"
       xml:space="preserve"><textPath
         dx="0.36363637"
         style="font-size:11px;font-style:normal;font-variant:normal;font-weight:normal;font-stretch:normal;fill:#ffffff;fill-opacity:1;font-family:Cambria;-inkscape-font-specification:Cambria"
         id="textPath4174"
         xlink:href="#path4172">ACADEMY</textPath></text>
    <path
       style="fill:none;stroke:none"
       d="m 7.36934,40.221548 c 0,0 24.994028,-8.656172 49.261323,0"
       id="path4172"
       inkscape:connector-curvature="0" />
  </g>
  <g
     style="display:inline"
     inkscape:label="Stars"
     id="layer7"
     inkscape:groupmode="layer">
    <path
       id="path2993-9-6"
       d="m 55.144112,31.999499 c 0,12.781864 -10.361747,23.143613 -23.143612,23.143613 -12.781863,0 -23.1436127,-10.361749 -23.1436127,-23.143613 0,-12.781864 10.3617497,-23.1436122 23.1436127,-23.1436122 12.781865,0 23.143612,10.3617482 23.143612,23.1436122 z"
       style="fill:none;stroke:none;display:inline"
       inkscape:connector-curvature="0" />
    <g
       id="g14854">
      <path
         sodipodi:type="star"
         style="fill:#b49733;fill-opacity:1;stroke:none"
         id="use6513"
         sodipodi:sides="5"
         sodipodi:cx="10.272727"
         sodipodi:cy="43.818184"
         sodipodi:r1="14.102634"
         sodipodi:r2="7.0513167"
         sodipodi:arg1="-0.26179939"
         sodipodi:arg2="0.36651914"
         inkscape:flatsided="false"
         inkscape:rounded="0"
         inkscape:randomized="0"
         d="m 23.894826,40.168153 -7.039128,6.176997 1.097874,9.300498 -8.0498824,-4.785811 -8.506038,3.918152 2.0640265,-9.13479 -6.3548946,-6.878947 9.3255212,-0.8598 4.5784973,-8.169575 3.699462,8.603405 z"
         inkscape:transform-center-x="-0.03292878"
         inkscape:transform-center-y="-0.16284465"
         transform="matrix(0.14437478,0,0,0.14437478,51.404449,35.740197)" />
      <path
         sodipodi:type="star"
         style="fill:#b49733;fill-opacity:1;stroke:none"
         id="use1299"
         sodipodi:sides="5"
         sodipodi:cx="10.272727"
         sodipodi:cy="43.818184"
         sodipodi:r1="14.102634"
         sodipodi:r2="7.0513167"
         sodipodi:arg1="-0.26179939"
         sodipodi:arg2="0.36651914"
         inkscape:flatsided="false"
         inkscape:rounded="0"
         inkscape:randomized="0"
         d="m 23.894826,40.168153 -7.039128,6.176997 1.097874,9.300498 -8.0498824,-4.785811 -8.506038,3.918152 2.0640265,-9.13479 -6.3548946,-6.878947 9.3255212,-0.8598 4.5784973,-8.169575 3.699462,8.603405 z"
         inkscape:transform-center-x="-0.03292878"
         inkscape:transform-center-y="-0.16284465"
         transform="matrix(0.14437478,0,0,0.14437478,49.171142,39.48516)" />
      <path
         sodipodi:type="star"
         style="fill:#b49733;fill-opacity:1;stroke:none"
         id="use2077"
         sodipodi:sides="5"
         sodipodi:cx="10.272727"
         sodipodi:cy="43.818184"
         sodipodi:r1="14.102634"
         sodipodi:r2="7.0513167"
         sodipodi:arg1="-0.26179939"
         sodipodi:arg2="0.36651914"
         inkscape:flatsided="false"
         inkscape:rounded="0"
         inkscape:randomized="0"
         d="m 23.894826,40.168153 -7.039128,6.176997 1.097874,9.300498 -8.0498824,-4.785811 -8.506038,3.918152 2.0640265,-9.13479 -6.3548946,-6.878947 9.3255212,-0.8598 4.5784973,-8.169575 3.699462,8.603405 z"
         inkscape:transform-center-x="-0.03292878"
         inkscape:transform-center-y="-0.16284465"
         transform="matrix(0.14437478,0,0,0.14437478,46.277321,42.746585)" />
      <path
         sodipodi:type="star"
         style="fill:#b49733;fill-opacity:1;stroke:none"
         id="use3307"
         sodipodi:sides="5"
         sodipodi:cx="10.272727"
         sodipodi:cy="43.818184"
         sodipodi:r1="14.102634"
         sodipodi:r2="7.0513167"
         sodipodi:arg1="-0.26179939"
         sodipodi:arg2="0.36651914"
         inkscape:flatsided="false"
         inkscape:rounded="0"
         inkscape:randomized="0"
         d="m 23.894826,40.168153 -7.039128,6.176997 1.097874,9.300498 -8.0498824,-4.785811 -8.506038,3.918152 2.0640265,-9.13479 -6.3548946,-6.878947 9.3255212,-0.8598 4.5784973,-8.169575 3.699462,8.603405 z"
         inkscape:transform-center-x="-0.03292878"
         inkscape:transform-center-y="-0.16284465"
         transform="matrix(0.14437478,0,0,0.14437478,42.825956,45.410717)" />
      <path
         sodipodi:type="star"
         style="fill:#b49733;fill-opacity:1;stroke:none"
         id="use3956"
         sodipodi:sides="5"
         sodipodi:cx="10.272727"
         sodipodi:cy="43.818184"
         sodipodi:r1="14.102634"
         sodipodi:r2="7.0513167"
         sodipodi:arg1="-0.26179939"
         sodipodi:arg2="0.36651914"
         inkscape:flatsided="false"
         inkscape:rounded="0"
         inkscape:randomized="0"
         d="m 23.894826,40.168153 -7.039128,6.176997 1.097874,9.300498 -8.0498824,-4.785811 -8.506038,3.918152 2.0640265,-9.13479 -6.3548946,-6.878947 9.3255212,-0.8598 4.5784973,-8.169575 3.699462,8.603405 z"
         inkscape:transform-center-x="-0.03292878"
         inkscape:transform-center-y="-0.16284465"
         transform="matrix(0.14437478,0,0,0.14437478,38.936522,47.380382)" />
      <path
         sodipodi:type="star"
         style="fill:#b49733;fill-opacity:1;stroke:none"
         id="use4396"
         sodipodi:sides="5"
         sodipodi:cx="10.272727"
         sodipodi:cy="43.818184"
         sodipodi:r1="14.102634"
         sodipodi:r2="7.0513167"
         sodipodi:arg1="-0.26179939"
         sodipodi:arg2="0.36651914"
         inkscape:flatsided="false"
         inkscape:rounded="0"
         inkscape:randomized="0"
         d="m 23.894826,40.168153 -7.039128,6.176997 1.097874,9.300498 -8.0498824,-4.785811 -8.506038,3.918152 2.0640265,-9.13479 -6.3548946,-6.878947 9.3255212,-0.8598 4.5784973,-8.169575 3.699462,8.603405 z"
         inkscape:transform-center-x="-0.03292878"
         inkscape:transform-center-y="-0.16284465"
         transform="matrix(0.14437478,0,0,0.14437478,34.74563,48.581499)" />
      <path
         sodipodi:type="star"
         style="fill:#b49733;fill-opacity:1;stroke:none"
         id="use8727"
         sodipodi:sides="5"
         sodipodi:cx="10.272727"
         sodipodi:cy="43.818184"
         sodipodi:r1="14.102634"
         sodipodi:r2="7.0513167"
         sodipodi:arg1="-0.26179939"
         sodipodi:arg2="0.36651914"
         inkscape:flatsided="false"
         inkscape:rounded="0"
         inkscape:randomized="0"
         d="m 23.894826,40.168153 -7.039128,6.176997 1.097874,9.300498 -8.0498824,-4.785811 -8.506038,3.918152 2.0640265,-9.13479 -6.3548946,-6.878947 9.3255212,-0.8598 4.5784973,-8.169575 3.699462,8.603405 z"
         inkscape:transform-center-x="-0.03292878"
         inkscape:transform-center-y="-0.16284465"
         transform="matrix(0.14437478,0,0,0.14437478,30.403344,48.977664)" />
      <path
         sodipodi:type="star"
         style="fill:#b49733;fill-opacity:1;stroke:none"
         id="use7588"
         sodipodi:sides="5"
         sodipodi:cx="10.272727"
         sodipodi:cy="43.818184"
         sodipodi:r1="14.102634"
         sodipodi:r2="7.0513167"
         sodipodi:arg1="-0.26179939"
         sodipodi:arg2="0.36651914"
         inkscape:flatsided="false"
         inkscape:rounded="0"
         inkscape:randomized="0"
         d="m 23.894826,40.168153 -7.039128,6.176997 1.097874,9.300498 -8.0498824,-4.785811 -8.506038,3.918152 2.0640265,-9.13479 -6.3548946,-6.878947 9.3255212,-0.8598 4.5784973,-8.169575 3.699462,8.603405 z"
         inkscape:transform-center-x="-0.03292878"
         inkscape:transform-center-y="-0.16284465"
         transform="matrix(0.14437478,0,0,0.14437478,26.063532,48.552973)" />
      <path
         sodipodi:type="star"
         style="fill:#b49733;fill-opacity:1;stroke:none"
         id="use5300"
         sodipodi:sides="5"
         sodipodi:cx="10.272727"
         sodipodi:cy="43.818184"
         sodipodi:r1="14.102634"
         sodipodi:r2="7.0513167"
         sodipodi:arg1="-0.26179939"
         sodipodi:arg2="0.36651914"
         inkscape:flatsided="false"
         inkscape:rounded="0"
         inkscape:randomized="0"
         d="m 23.894826,40.168153 -7.039128,6.176997 1.097874,9.300498 -8.0498824,-4.785811 -8.506038,3.918152 2.0640265,-9.13479 -6.3548946,-6.878947 9.3255212,-0.8598 4.5784973,-8.169575 3.699462,8.603405 z"
         inkscape:transform-center-x="-0.03292878"
         inkscape:transform-center-y="-0.16284465"
         transform="matrix(0.14437478,0,0,0.14437478,21.881422,47.320863)" />
      <path
         sodipodi:type="star"
         style="fill:#b49733;fill-opacity:1;stroke:none"
         id="use5484"
         sodipodi:sides="5"
         sodipodi:cx="10.272727"
         sodipodi:cy="43.818184"
         sodipodi:r1="14.102634"
         sodipodi:r2="7.0513167"
         sodipodi:arg1="-0.26179939"
         sodipodi:arg2="0.36651914"
         inkscape:flatsided="false"
         inkscape:rounded="0"
         inkscape:randomized="0"
         d="m 23.894826,40.168153 -7.039128,6.176997 1.097874,9.300498 -8.0498824,-4.785811 -8.506038,3.918152 2.0640265,-9.13479 -6.3548946,-6.878947 9.3255212,-0.8598 4.5784973,-8.169575 3.699462,8.603405 z"
         inkscape:transform-center-x="-0.03292878"
         inkscape:transform-center-y="-0.16284465"
         transform="matrix(0.14437478,0,0,0.14437478,18.006339,45.323142)" />
      <path
         sodipodi:type="star"
         style="fill:#b49733;fill-opacity:1;stroke:none"
         id="use7202"
         sodipodi:sides="5"
         sodipodi:cx="10.272727"
         sodipodi:cy="43.818184"
         sodipodi:r1="14.102634"
         sodipodi:r2="7.0513167"
         sodipodi:arg1="-0.26179939"
         sodipodi:arg2="0.36651914"
         inkscape:flatsided="false"
         inkscape:rounded="0"
         inkscape:randomized="0"
         d="m 23.894826,40.168153 -7.039128,6.176997 1.097874,9.300498 -8.0498824,-4.785811 -8.506038,3.918152 2.0640265,-9.13479 -6.3548946,-6.878947 9.3255212,-0.8598 4.5784973,-8.169575 3.699462,8.603405 z"
         inkscape:transform-center-x="-0.03292878"
         inkscape:transform-center-y="-0.16284465"
         transform="matrix(0.14437478,0,0,0.14437478,14.574135,42.634615)" />
      <path
         sodipodi:type="star"
         style="fill:#b49733;fill-opacity:1;stroke:none"
         id="use4335"
         sodipodi:sides="5"
         sodipodi:cx="10.272727"
         sodipodi:cy="43.818184"
         sodipodi:r1="14.102634"
         sodipodi:r2="7.0513167"
         sodipodi:arg1="-0.26179939"
         sodipodi:arg2="0.36651914"
         inkscape:flatsided="false"
         inkscape:rounded="0"
         inkscape:randomized="0"
         d="m 23.894826,40.168153 -7.039128,6.176997 1.097874,9.300498 -8.0498824,-4.785811 -8.506038,3.918152 2.0640265,-9.13479 -6.3548946,-6.878947 9.3255212,-0.8598 4.5784973,-8.169575 3.699462,8.603405 z"
         inkscape:transform-center-x="-0.03292878"
         inkscape:transform-center-y="-0.16284465"
         transform="matrix(0.14437478,0,0,0.14437478,11.70372,39.352922)" />
      <path
         sodipodi:type="star"
         style="fill:#b49733;fill-opacity:1;stroke:none"
         id="use0460"
         sodipodi:sides="5"
         sodipodi:cx="10.272727"
         sodipodi:cy="43.818184"
         sodipodi:r1="14.102634"
         sodipodi:r2="7.0513167"
         sodipodi:arg1="-0.26179939"
         sodipodi:arg2="0.36651914"
         inkscape:flatsided="false"
         inkscape:rounded="0"
         inkscape:randomized="0"
         d="m 23.894826,40.168153 -7.039128,6.176997 1.097874,9.300498 -8.0498824,-4.785811 -8.506038,3.918152 2.0640265,-9.13479 -6.3548946,-6.878947 9.3255212,-0.8598 4.5784973,-8.169575 3.699462,8.603405 z"
         inkscape:transform-center-x="-0.03292878"
         inkscape:transform-center-y="-0.16284465"
         transform="matrix(0.14437478,0,0,0.14437478,9.497605,35.592341)" />
      <path
         sodipodi:type="star"
         style="fill:#b49733;fill-opacity:1;stroke:none"
         id="use9680"
         sodipodi:sides="5"
         sodipodi:cx="10.272727"
         sodipodi:cy="43.818184"
         sodipodi:r1="14.102634"
         sodipodi:r2="7.0513167"
         sodipodi:arg1="-0.26179939"
         sodipodi:arg2="0.36651914"
         inkscape:flatsided="false"
         inkscape:rounded="0"
         inkscape:randomized="0"
         d="m 23.894826,40.168153 -7.039128,6.176997 1.097874,9.300498 -8.0498824,-4.785811 -8.506038,3.918152 2.0640265,-9.13479 -6.3548946,-6.878947 9.3255212,-0.8598 4.5784973,-8.169575 3.699462,8.603405 z"
         inkscape:transform-center-x="-0.03292878"
         inkscape:transform-center-y="-0.16284465"
         transform="matrix(0.14437478,0,0,0.14437478,7.543446,22.815661)" />
      <path
         sodipodi:type="star"
         style="fill:#b49733;fill-opacity:1;stroke:none"
         id="use6612"
         sodipodi:sides="5"
         sodipodi:cx="10.272727"
         sodipodi:cy="43.818184"
         sodipodi:r1="14.102634"
         sodipodi:r2="7.0513167"
         sodipodi:arg1="-0.26179939"
         sodipodi:arg2="0.36651914"
         inkscape:flatsided="false"
         inkscape:rounded="0"
         inkscape:randomized="0"
         d="m 23.894826,40.168153 -7.039128,6.176997 1.097874,9.300498 -8.0498824,-4.785811 -8.506038,3.918152 2.0640265,-9.13479 -6.3548946,-6.878947 9.3255212,-0.8598 4.5784973,-8.169575 3.699462,8.603405 z"
         inkscape:transform-center-x="-0.03292878"
         inkscape:transform-center-y="-0.16284465"
         transform="matrix(0.14437478,0,0,0.14437478,8.512853,18.565188)" />
      <path
         sodipodi:type="star"
         style="fill:#b49733;fill-opacity:1;stroke:none"
         id="use5315"
         sodipodi:sides="5"
         sodipodi:cx="10.272727"
         sodipodi:cy="43.818184"
         sodipodi:r1="14.102634"
         sodipodi:r2="7.0513167"
         sodipodi:arg1="-0.26179939"
         sodipodi:arg2="0.36651914"
         inkscape:flatsided="false"
         inkscape:rounded="0"
         inkscape:randomized="0"
         d="m 23.894826,40.168153 -7.039128,6.176997 1.097874,9.300498 -8.0498824,-4.785811 -8.506038,3.918152 2.0640265,-9.13479 -6.3548946,-6.878947 9.3255212,-0.8598 4.5784973,-8.169575 3.699462,8.603405 z"
         inkscape:transform-center-x="-0.03292878"
         inkscape:transform-center-y="-0.16284465"
         transform="matrix(0.14437478,0,0,0.14437478,52.614872,18.565172)" />
      <path
         sodipodi:type="star"
         style="fill:#b49733;fill-opacity:1;stroke:none"
         id="use4833"
         sodipodi:sides="5"
         sodipodi:cx="10.272727"
         sodipodi:cy="43.818184"
         sodipodi:r1="14.102634"
         sodipodi:r2="7.0513167"
         sodipodi:arg1="-0.26179939"
         sodipodi:arg2="0.36651914"
         inkscape:flatsided="false"
         inkscape:rounded="0"
         inkscape:randomized="0"
         d="m 23.894826,40.168153 -7.039128,6.176997 1.097874,9.300498 -8.0498824,-4.785811 -8.506038,3.918152 2.0640265,-9.13479 -6.3548946,-6.878947 9.3255212,-0.8598 4.5784973,-8.169575 3.699462,8.603405 z"
         inkscape:transform-center-x="-0.03292878"
         inkscape:transform-center-y="-0.16284465"
         transform="matrix(0.14437478,0,0,0.14437478,53.612982,22.815172)" />
    </g>
  </g>
</svg>
